P1
# CREATOR: GIMP PNM Filter Version 1.1
5 6
00100
01110
10101
00100
00100
01100
