P1
# CREATOR: GIMP PNM Filter Version 1.1
21 18
000000000000000000000 
0 0 0 0 0 0 0 1 1 1 1 1 1 1 0 0 0 0 0 0 0 
0 0 0 0 0 1 1 1 1 1 1 1 1 1 1 1 0 0 0 0 0 
0 0 0 1 1 1 0 0 0 0 0 0 0 0 0 1 1 1 0 0 0 
0 0 1 1 1 1 1 0 0 0 0 0 0 0 1 1 1 1 1 0 0 
0 1 1 1 0 1 1 1 0 0 0 0 0 1 1 1 0 1 1 1 0 
0 1 1 0 0 0 1 1 1 0 0 0 1 1 1 0 0 0 1 1 0 
0 1 1 0 0 0 0 1 1 1 0 1 1 1 0 0 0 0 1 1 0 
0 1 1 0 0 0 0 0 1 1 1 1 1 0 0 0 0 0 1 1 0 
0 1 1 0 0 0 0 0 1 1 1 1 1 0 0 0 0 0 1 1 0 
0 1 1 0 0 0 0 1 1 1 0 1 1 1 0 0 0 0 1 1 0 
0 1 1 0 0 0 1 1 1 0 0 0 1 1 1 0 0 0 1 1 0 
0 1 1 1 0 1 1 1 0 0 0 0 0 1 1 1 0 1 1 1 0
0 0 1 1 1 1 1 0 0 0 0 0 0 0 1 1 1 1 1 0 0 
0 0 0 1 1 1 0 0 0 0 0 0 0 0 0 1 1 1 0 0 0 
0 0 0 0 0 1 1 1 1 1 1 1 1 1 1 1 0 0 0 0 0 
0 0 0 0 0 0 0 1 1 1 1 1 1 1 0 0 0 0 0 0 0 
0 0 0 0 0 0 0 0 0 0 0 0 0 0 0 0 0 0 0 0 0 
