P1
# CREATOR: GIMP PNM Filter Version 1.1
17 22
00000000000000000
0 1 1 1 1 1 1 1 1 1 1 1 1 1 1 1 0 
0 1 1 1 1 1 1 1 1 1 1 1 1 1 1 1 0 
0 1 1 1 1 1 1 1 1 1 1 1 1 1 1 1 0 
0 1 1 1 1 1 1 1 1 1 1 1 1 1 1 1 0 
0 1 1 1 1 1 1 1 1 1 1 1 1 1 1 1 0 
0 0 0 1 1 1 1 1 1 1 1 1 1 1 0 0 0 
0 0 1 1 1 1 1 1 1 1 1 1 1 1 1 0 0 
0 1 1 1 1 1 1 0 0 0 1 1 1 1 1 1 0 
0 1 1 1 1 1 0 0 0 0 0 1 1 1 1 1 0 
0 1 1 1 1 1 0 0 0 0 0 1 1 1 1 1 0 
0 1 1 1 1 1 0 0 0 0 0 1 1 1 1 1 0 
0 1 1 1 1 1 0 0 0 0 0 1 1 1 1 1 0 
0 1 1 1 1 1 1 0 0 0 1 1 1 1 1 1 0  
0 0 1 1 1 1 1 1 1 1 1 1 1 1 1 0 0 
0 0 0 1 1 1 1 1 1 1 1 1 1 1 0 0 0  
0 1 1 1 1 1 1 1 1 1 1 1 1 1 1 1 0 
0 1 1 1 1 1 1 1 1 1 1 1 1 1 1 1 0
0 1 1 1 1 1 1 1 1 1 1 1 1 1 1 1 0 
0 1 1 1 1 1 1 1 1 1 1 1 1 1 1 1 0 
0 1 1 1 1 1 1 1 1 1 1 1 1 1 1 1 0 
0 0 0 0 0 0 0 0 0 0 0 0 0 0 0 0 0
