P1
# CREATOR: GIMP PNM Filter Version 1.1
23 23
00000000011111000000000
00000001111111110000000
00000111100000111100000
00001110000000001110000
00011100000000000111000
00011000111111100011000
00110001100100110001100
00110011000100011001100
01100010001110001000110
01100011111111111000110
01100010011111001000110
01100010001110001000110
01100010011011001000110
00110011010001011001100
00110001100000110001100
00011000111111100011000
00011100000000000111000
00001110000000001110000
00000111100000111100000
00000001111111110000000
00000000011111000000000
00000000000000000000000
00000000000000000000000
