P1
# CREATOR: GIMP PNM Filter Version 1.1
4 7
0 0 1 0
0 0 1 0 
0 0 1 0 
0 0 1 0 
0 0 1 0 
0 0 1 0
0 0 1 0
