P1
# CREATOR: GIMP PNM Filter Version 1.1
4 7
1 1 1 1
1 0 0 1
1 0 0 1 
1 1 1 1
1 0 0 1
1 0 0 1 
1 1 1 1
